<?xml version="1.0" encoding="UTF-8" standalone="no"?>
<svg
   xmlns:dc="http://purl.org/dc/elements/1.1/"
   xmlns:cc="http://creativecommons.org/ns#"
   xmlns:rdf="http://www.w3.org/1999/02/22-rdf-syntax-ns#"
   xmlns:svg="http://www.w3.org/2000/svg"
   xmlns="http://www.w3.org/2000/svg"
   xmlns:xlink="http://www.w3.org/1999/xlink"
   xmlns:sodipodi="http://sodipodi.sourceforge.net/DTD/sodipodi-0.dtd"
   xmlns:inkscape="http://www.inkscape.org/namespaces/inkscape"
   height="800"
   width="800"
   viewBox="-19.5036 -32.49725 112.68742 194.9835"
   version="1.1"
   id="svg28"
   sodipodi:docname="LogoInstagram.svg"
   inkscape:version="1.0.2 (e86c870879, 2021-01-15)">
  <metadata
     id="metadata32">
    <rdf:RDF>
      <cc:Work
         rdf:about="">
        <dc:format>image/svg+xml</dc:format>
        <dc:type
           rdf:resource="http://purl.org/dc/dcmitype/StillImage" />
        <dc:title></dc:title>
      </cc:Work>
    </rdf:RDF>
  </metadata>
  <sodipodi:namedview
     pagecolor="#ffffff"
     bordercolor="#666666"
     borderopacity="1"
     objecttolerance="10"
     gridtolerance="10"
     guidetolerance="10"
     inkscape:pageopacity="0"
     inkscape:pageshadow="2"
     inkscape:window-width="1366"
     inkscape:window-height="688"
     id="namedview30"
     showgrid="false"
     inkscape:zoom="0.41807688"
     inkscape:cx="584.35518"
     inkscape:cy="288.23996"
     inkscape:window-x="0"
     inkscape:window-y="0"
     inkscape:window-maximized="1"
     inkscape:current-layer="svg28"
     inkscape:document-rotation="0" />
  <defs
     id="defs20">
    <radialGradient
       fy="578.08801"
       fx="158.429"
       gradientTransform="matrix(0,-2.8382239,2.6404914,0,-1532.6919,622.06171)"
       gradientUnits="userSpaceOnUse"
       xlink:href="#a"
       r="65"
       cy="578.08801"
       cx="158.429"
       id="c" />
    <radialGradient
       fy="473.45499"
       fx="147.694"
       gradientTransform="matrix(0.24908458,1.2440195,-5.1291892,1.0270121,2304.7486,-684.64714)"
       gradientUnits="userSpaceOnUse"
       xlink:href="#b"
       r="65"
       cy="473.45499"
       cx="147.694"
       id="d" />
    <linearGradient
       id="b">
      <stop
         stop-color="#3771c8"
         offset="0"
         id="stop4" />
      <stop
         offset=".128"
         stop-color="#3771c8"
         id="stop6" />
      <stop
         stop-opacity="0"
         stop-color="#60f"
         offset="1"
         id="stop8" />
    </linearGradient>
    <linearGradient
       id="a">
      <stop
         stop-color="#fd5"
         offset="0"
         id="stop11" />
      <stop
         stop-color="#fd5"
         offset=".1"
         id="stop13" />
      <stop
         stop-color="#ff543e"
         offset=".5"
         id="stop15" />
      <stop
         stop-color="#c837ab"
         offset="1"
         id="stop17" />
    </linearGradient>
  </defs>
  <path
     d="m 37.414504,-28.07856 c -38.8677346,0 -50.235065,0.0401 -52.444663,0.223394 -7.97632,0.663023 -12.939682,1.9189 -18.346968,4.611087 -4.167162,2.069261 -7.453636,4.467885 -10.697148,7.830254 -5.90706,6.1318861 -9.487096,13.675738 -10.783069,22.6430121 -0.630086,4.3533239 -0.813384,5.2411729 -0.850616,27.4774919 -0.01432,7.412107 0,17.166989 0,30.251305 0,38.836226 0.04296,50.192106 0.229122,52.397406 0.644407,7.76152 1.861619,12.64469 4.439245,17.9861 4.926129,10.22458 14.334464,17.90018 25.418256,20.76421 3.837798,0.98809 8.076561,1.53226 13.518215,1.79002 2.3055444,0.10024 25.8049,0.17184 49.318576,0.17184 23.513677,0 47.027352,-0.0286 49.275612,-0.1432 6.30087,-0.29643 9.95966,-0.78761 14.005104,-1.83298 a 38.979432,38.979432 0 0 0 25.41826,-20.80717 c 2.52751,-5.21253 3.80916,-10.28186 4.38912,-17.63812 0.12602,-1.60386 0.17901,-27.175338 0.17901,-52.712451 0,-25.541408 -0.0573,-51.065633 -0.1833,-52.669489 -0.58713,-7.4751154 -1.86878,-12.50148595 -4.47791,-17.8142594 -2.14086,-4.3490277 -4.51801,-7.5968366 -7.96916,-10.9176776 -6.15766,-5.882715 -13.69006,-9.462751 -22.667364,-10.757292 -4.34902,-0.628655 -5.21539,-0.814817 -27.468897,-0.853481 z"
     fill="url(#c)"
     id="path22"
     style="fill:url(#c);stroke-width:1.43201" />
  <path
     d="m 37.414504,-28.07856 c -38.8677346,0 -50.235065,0.0401 -52.444663,0.223394 -7.97632,0.663023 -12.939682,1.9189 -18.346968,4.611087 -4.167162,2.069261 -7.453636,4.467885 -10.697148,7.830254 -5.90706,6.1318861 -9.487096,13.675738 -10.783069,22.6430121 -0.630086,4.3533239 -0.813384,5.2411729 -0.850616,27.4774919 -0.01432,7.412107 0,17.166989 0,30.251305 0,38.836226 0.04296,50.192106 0.229122,52.397406 0.644407,7.76152 1.861619,12.64469 4.439245,17.9861 4.926129,10.22458 14.334464,17.90018 25.418256,20.76421 3.837798,0.98809 8.076561,1.53226 13.518215,1.79002 2.3055444,0.10024 25.8049,0.17184 49.318576,0.17184 23.513677,0 47.027352,-0.0286 49.275612,-0.1432 6.30087,-0.29643 9.95966,-0.78761 14.005104,-1.83298 a 38.979432,38.979432 0 0 0 25.41826,-20.80717 c 2.52751,-5.21253 3.80916,-10.28186 4.38912,-17.63812 0.12602,-1.60386 0.17901,-27.175338 0.17901,-52.712451 0,-25.541408 -0.0573,-51.065633 -0.1833,-52.669489 -0.58713,-7.4751154 -1.86878,-12.50148595 -4.47791,-17.8142594 -2.14086,-4.3490277 -4.51801,-7.5968366 -7.96916,-10.9176776 -6.15766,-5.882715 -13.69006,-9.462751 -22.667364,-10.757292 -4.34902,-0.628655 -5.21539,-0.814817 -27.468897,-0.853481 z"
     fill="url(#d)"
     id="path24"
     style="fill:url(#d);stroke-width:1.43201" />
  <path
     d="m 37.371544,-3.7343151 c -18.66774,0 -21.010515,0.081625 -28.3424286,0.4152842 -7.317594,0.3350913 -12.31246,1.493591 -16.682968,3.19339207 -4.5208694,1.75564963 -8.3558044,4.10415323 -12.1764184,7.92619973 -3.823478,3.8206141 -6.171982,7.6555491 -7.93336,12.1749861 -1.704097,4.37194 -2.864029,9.368239 -3.193392,16.682968 -0.326499,7.331914 -0.41242,9.676121 -0.41242,28.343861 0,18.66774 0.08306,21.003355 0.415284,28.335269 0.336524,7.317595 1.495023,12.312455 3.193392,16.682965 1.757082,4.52087 4.105586,8.35581 7.927632,12.17642 3.819182,3.82348 7.654117,6.17771 12.1721224,7.93336 4.373372,1.6998 9.36967,2.8583 16.685832,3.19339 7.3319136,0.33366 9.6732566,0.41529 28.3395646,0.41529 18.669172,0 21.004787,-0.0816 28.336701,-0.41529 7.317591,-0.33509 12.318191,-1.49359 16.691561,-3.19339 4.51944,-1.75565 8.34864,-4.10988 12.16782,-7.93336 3.82348,-3.82061 6.171994,-7.65555 7.933364,-12.17499 1.68978,-4.37194 2.84971,-9.36823 3.1934,-16.682963 0.32936,-7.331914 0.41528,-9.668961 0.41528,-28.336701 0,-18.66774 -0.0859,-21.010515 -0.41528,-28.342429 -0.34369,-7.317594 -1.50362,-12.31246 -3.1934,-16.682968 C 100.73246,15.45611 98.383946,11.621175 94.560466,7.8005609 90.736996,3.9770824 86.913516,1.6285788 82.388346,-0.12563883 78.006386,-1.8254399 73.008656,-2.9839396 65.691061,-3.3190309 58.359147,-3.6526903 56.024963,-3.7343151 37.351496,-3.7343151 Z M 31.20529,8.6526094 c 1.830114,-0.00286 3.872167,0 6.166254,0 18.352696,0 20.527926,0.065873 27.775351,0.395236 6.701828,0.3064511 10.339141,1.4262866 12.762111,2.3671196 3.20771,1.245853 5.49464,2.735148 7.89899,5.140932 2.40579,2.405784 3.89508,4.697007 5.1438,7.904719 0.94083,2.420105 2.0621,6.057421 2.36712,12.759249 0.32936,7.245993 0.40096,9.422654 0.40096,27.766759 0,18.344104 -0.0716,20.520766 -0.40096,27.766759 -0.30645,6.701828 -1.42629,10.339147 -2.36712,12.759247 -1.24585,3.20771 -2.73801,5.49178 -5.1438,7.89613 -2.40578,2.40578 -4.68984,3.89508 -7.89899,5.14093 -2.4201,0.94513 -6.060283,2.0621 -12.762111,2.36855 -7.245993,0.32937 -9.422655,0.40097 -27.775351,0.40097 -18.354129,0 -20.529359,-0.0716 -27.7753506,-0.40097 -6.701828,-0.30931 -10.33914403,-1.42915 -12.763545,-2.36998 -3.207712,-1.24585 -5.498935,-2.73515 -7.9047194,-5.14093 -2.405784,-2.40579 -3.895079,-4.69128 -5.143796,-7.90043 -0.940833,-2.4201 -2.0621,-6.057418 -2.367119,-12.759245 -0.329364,-7.245993 -0.395236,-9.422655 -0.395236,-27.778215 0,-18.355561 0.06587,-20.520767 0.395236,-27.766759 0.306451,-6.701828 1.426286,-10.339144 2.367119,-12.762113 1.245853,-3.207712 2.738012,-5.498935 5.143796,-7.904719 2.4057844,-2.405784 4.6970074,-3.895079 7.9047194,-5.143796 2.42296897,-0.94513 6.061717,-2.0621007 12.763545,-2.3699838 C 15.937152,8.7356663 18.394489,8.6497454 31.20529,8.6354253 Z M 74.062616,20.065764 a 8.2484029,8.2484029 0 1 0 8.2484,8.245539 c 0,-4.553806 -3.69459,-8.248403 -8.2484,-8.248403 z m -36.691072,9.637457 c -19.494012,0 -35.2991546,15.805143 -35.2991546,35.299155 0,19.494012 15.8051426,35.291994 35.2991546,35.291994 19.494012,0 35.294862,-15.797982 35.294862,-35.291994 0,-19.494012 -15.802282,-35.299155 -35.296294,-35.299155 z m 0,12.386925 c 12.653279,0 22.91223,10.257519 22.91223,22.91223 0,12.653279 -10.258951,22.91223 -22.91223,22.91223 -12.654711,0 -22.912231,-10.258951 -22.912231,-22.91223 0,-12.654711 10.25752,-22.91223 22.912231,-22.91223 z"
     fill="#ffffff"
     id="path26"
     style="stroke-width:1.43201" />
</svg>
